<svg xmlns="http://www.w3.org/2000/svg" width="1024" height="1024" viewBox="0 0 1024 1024" fill="none">
  <defs>
    <linearGradient id="badgeGradient" x1="176" y1="176" x2="848" y2="848" gradientUnits="userSpaceOnUse">
      <stop offset="0" stop-color="#2563EB" />
      <stop offset="1" stop-color="#4F46E5" />
    </linearGradient>
    <filter id="glow" x="76" y="76" width="872" height="872" filterUnits="userSpaceOnUse" color-interpolation-filters="sRGB">
      <feFlood flood-opacity="0" result="BackgroundImageFix"/>
      <feColorMatrix in="SourceAlpha" type="matrix" values="0 0 0 0 0 0 0 0 0 0 0 0 0 0 0 0 0 0 127 0" result="hardAlpha"/>
      <feOffset/>
      <feGaussianBlur stdDeviation="38"/>
      <feColorMatrix type="matrix" values="0 0 0 0 0.145098 0 0 0 0 0.388235 0 0 0 0 0.921569 0 0 0 0.34 0"/>
      <feBlend mode="normal" in2="BackgroundImageFix" result="effect1_dropShadow_0_1"/>
      <feBlend mode="normal" in="SourceGraphic" in2="effect1_dropShadow_0_1" result="shape"/>
    </filter>
  </defs>

  <rect width="1024" height="1024" rx="260" fill="#F8FAFC"/>

  <g filter="url(#glow)">
    <rect x="176" y="176" width="672" height="672" rx="168" fill="url(#badgeGradient)"/>
  </g>

  <path
    d="M372 404C372 369.817 399.817 342 434 342H478V314C478 279.817 505.817 252 540 252H596C630.183 252 658 279.817 658 314V342H702C736.183 342 764 369.817 764 404V454H372V404ZM540 300C532.268 300 526 306.268 526 314V342H610V314C610 306.268 603.732 300 596 300H540Z"
    fill="white"
  />
  <path
    d="M372 500H764V664C764 698.183 736.183 726 702 726H434C399.817 726 372 698.183 372 664V500ZM526 564C512.745 564 502 574.745 502 588C502 601.255 512.745 612 526 612H610C623.255 612 634 601.255 634 588C634 574.745 623.255 564 610 564H526Z"
    fill="white"
  />
</svg>
